<mxfile host="app.diagrams.net" modified="2024-01-27T14:45:11.631Z" agent="Mozilla/5.0 (Windows NT 10.0; Win64; x64) AppleWebKit/537.36 (KHTML, like Gecko) Chrome/120.0.0.0 Safari/537.36" version="23.0.2" etag="STlK_861sCTaN3YVPi_v" type="github">
  <diagram name="‫עמוד-1‬" id="exyj2GibHgD6Fv7aFJdf">
    <mxGraphModel>
      <root>
        <mxCell id="0" />
        <mxCell id="1" parent="0" />
      </root>
    </mxGraphModel>
  </diagram>
</mxfile>
